<?xml version="1.0" encoding="UTF-8" standalone="no"?>
<svg
   aria-label="Carousell logo"
   height="20"
   viewBox="0 0 80 80"
   width="20"
   version="1.1"
   id="svg4709"
   sodipodi:docname="carousell.svg"
   inkscape:version="1.2.1 (9c6d41e410, 2022-07-14)"
   xmlns:inkscape="http://www.inkscape.org/namespaces/inkscape"
   xmlns:sodipodi="http://sodipodi.sourceforge.net/DTD/sodipodi-0.dtd"
   xmlns="http://www.w3.org/2000/svg"
   xmlns:svg="http://www.w3.org/2000/svg">
  <defs
     id="defs4713" />
  <sodipodi:namedview
     id="namedview4711"
     pagecolor="#ffffff"
     bordercolor="#000000"
     borderopacity="0.25"
     inkscape:showpageshadow="2"
     inkscape:pageopacity="0.0"
     inkscape:pagecheckerboard="0"
     inkscape:deskcolor="#d1d1d1"
     showgrid="false"
     inkscape:zoom="39.1"
     inkscape:cx="5.6905371"
     inkscape:cy="10"
     inkscape:window-width="1904"
     inkscape:window-height="995"
     inkscape:window-x="26"
     inkscape:window-y="23"
     inkscape:window-maximized="0"
     inkscape:current-layer="svg4709" />
  <path
     id="path4699"
     style="fill-rule:evenodd;fill:#fdfdff"
     d="M 56.570312 0 A 3.69 3.69 0 0 0 52.867188 3.703125 L 52.867188 5.7421875 L 15.046875 5.7421875 C 10.20688 5.7421875 3 8.9390714 3 17.789062 L 3 67.617188 C 3 72.467183 6.2068838 79.679688 15.046875 79.679688 L 64.898438 79.679688 C 69.748433 79.679688 76.953125 76.467179 76.953125 67.617188 L 76.953125 17.796875 C 76.953125 13.926879 74.89812 8.572498 69.578125 6.5625 L 69.570312 6.546875 L 69.570312 3.6875 A 3.69 3.69 0 0 0 65.867188 0 L 56.570312 0 z M 39.96875 16.828125 A 25.87 25.87 0 0 1 47.96875 18.101562 A 2.21 2.21 0 0 1 49.390625 20.882812 L 47.5 26.679688 A 2.21 2.21 0 0 1 44.71875 28.101562 A 15.37 15.37 0 0 0 39.96875 27.351562 A 15.37 15.37 0 1 0 44.71875 57.320312 A 2.2 2.2 0 0 1 47.5 58.742188 L 49.390625 64.53125 A 2.2 2.2 0 0 1 47.96875 67.328125 A 25.88 25.88 0 1 1 39.96875 16.828125 z M 55.34375 22.960938 A 2.2090722 2.2090722 0 0 1 57.4375 26.601562 L 53.359375 31.132812 A 2.2 2.2 0 0 1 50.242188 31.289062 A 2.2 2.2 0 0 1 50.078125 28.171875 L 54.15625 23.640625 A 2.2090722 2.2090722 0 0 1 55.34375 22.960938 z M 62.046875 30.914062 A 2.2114249 2.2114249 0 0 1 62.492188 35.101562 L 56.921875 37.578125 A 2.2 2.2 0 0 1 54.007812 36.460938 L 54 36.460938 A 2.2 2.2 0 0 1 55.132812 33.539062 L 60.6875 31.0625 A 2.2114249 2.2114249 0 0 1 62.046875 30.914062 z M 57.539062 40.5 L 63.640625 40.5 A 2.2109375 2.2109375 0 0 1 63.640625 44.921875 L 57.539062 44.921875 A 2.2109375 2.2109375 0 0 1 57.539062 40.5 z M 55.820312 47.710938 A 2.21 2.21 0 0 1 56.921875 47.84375 L 62.5 50.320312 A 2.2114249 2.2114249 0 0 1 60.703125 54.359375 L 55.117188 51.867188 A 2.21 2.21 0 0 1 55.820312 47.710938 z M 51.289062 53.664062 A 2.21 2.21 0 0 1 53.367188 54.289062 L 57.453125 58.820312 A 2.21 2.21 0 0 1 54.171875 61.78125 L 50.09375 57.25 A 2.21 2.21 0 0 1 51.289062 53.664062 z " />
</svg>
